<svg version="1.1" id="Layer_1" xmlns="http://www.w3.org/2000/svg" xmlns:xlink="http://www.w3.org/1999/xlink" x="0px" y="0px"
	 width="100%" viewBox="0 0 518 120" enable-background="new 0 0 518 120" xml:space="preserve">
<path fill="#FEFEFE" opacity="1.000000" stroke="none" 
	d="
M22.000000,121.000000 
	C15.018730,121.000000 8.037460,121.000000 1.058440,120.999985 
	C1.060689,80.999962 1.060689,40.999950 1.060689,1.000000 
	C8.435095,1.000000 15.748811,1.000000 23.529737,1.221467 
	C23.996948,1.442933 23.991934,1.885849 23.659027,2.015604 
	C17.389702,5.928360 17.325596,10.199164 23.289318,13.846291 
	C31.382586,18.795746 39.395267,23.918108 47.769745,28.347649 
	C51.449837,30.294174 55.890678,31.394432 60.068050,31.679930 
	C67.693321,32.201073 75.379898,31.869780 83.040359,31.816547 
	C88.605255,31.777876 93.482704,29.900654 97.420341,25.898926 
	C101.507912,21.744820 105.589966,17.581797 109.557388,13.313874 
	C114.125740,8.399518 113.257942,4.716774 107.006920,1.646030 
	C107.004585,1.430687 107.000000,1.000000 107.000000,1.000000 
	C244.269516,1.000000 381.539032,1.000000 518.904297,1.000000 
	C518.904297,40.917374 518.904297,80.835052 518.904297,121.000000 
	C382.645874,121.000000 246.291595,121.000000 109.596481,120.660797 
	C113.273247,116.236748 113.415131,113.800819 109.661453,109.781036 
	C105.918259,105.772491 102.055672,101.875671 98.267517,97.908783 
	C93.887627,93.322250 88.499161,91.174530 82.203468,91.174278 
	C74.889198,91.173981 67.544220,90.770752 60.272232,91.325043 
	C55.950935,91.654427 51.387897,92.804871 47.560795,94.793381 
	C39.614201,98.922302 32.074070,103.836510 24.388386,108.463676 
	C17.824352,112.415565 17.336788,115.071754 22.000000,121.000000 
M52.926319,51.022690 
	C52.255314,45.482254 50.104107,40.490185 45.427811,37.444542 
	C36.369896,31.545181 26.994904,26.131714 17.724754,20.561077 
	C17.041624,20.150568 16.157440,20.022327 15.346042,19.885752 
	C8.002090,18.649607 3.433645,22.963549 3.316338,31.855047 
	C3.125234,46.339977 3.252849,60.829159 3.253427,75.316544 
	C3.253666,81.311157 2.999622,87.321754 3.348791,93.296593 
	C3.857140,101.995262 11.556329,106.035301 19.099043,101.662514 
	C27.160574,96.988945 35.122147,92.140717 43.078136,87.288048 
	C49.737717,83.226112 53.006790,77.200386 53.011032,69.409813 
	C53.014202,63.581745 52.987717,57.753658 52.926319,51.022690 
M146.407715,50.734612 
	C144.965881,50.734612 143.524048,50.734612 141.953400,50.734612 
	C141.953400,46.885727 141.953400,43.518246 141.953400,39.715813 
	C150.696274,39.715813 159.105133,39.715813 167.538971,39.715813 
	C167.538971,36.015659 167.538971,32.767738 167.538971,29.425829 
	C154.709595,29.425829 142.165161,29.425829 129.614594,29.425829 
	C129.614594,47.440712 129.614594,65.142227 129.614594,82.629181 
	C142.551163,82.629181 155.108444,82.629181 167.455933,82.629181 
	C167.455933,78.978874 167.455933,75.737625 167.455933,72.068893 
	C158.682907,72.068893 150.266861,72.068893 142.044952,72.068893 
	C142.044952,68.245934 142.044952,64.878845 142.044952,61.134682 
	C149.567749,61.134682 156.661194,61.134682 163.670090,61.134682 
	C163.670090,57.493526 163.670090,54.248798 163.670090,50.735184 
	C158.063995,50.735184 152.748016,50.735184 146.407715,50.734612 
M468.149658,44.388191 
	C466.853149,45.584694 464.945862,46.540058 464.362335,48.018044 
	C461.300415,55.773453 458.573578,63.661140 455.083191,73.287621 
	C454.773499,72.147881 454.554047,71.209625 454.264038,70.293747 
	C451.830048,62.607349 449.457245,54.899841 446.860321,47.268681 
	C446.470825,46.124187 445.078339,44.616905 444.038757,44.524334 
	C440.303558,44.191711 436.520691,44.393806 431.993256,44.393806 
	C437.408844,55.511986 442.643097,65.834122 447.442719,76.354546 
	C449.001617,79.771477 449.423767,83.707024 450.510132,87.971680 
	C445.122803,87.971680 441.013733,87.971680 436.826782,87.971680 
	C436.826782,91.633919 436.826782,94.999680 436.826782,99.023849 
	C443.205536,99.023849 449.182861,98.974564 455.158875,99.039757 
	C459.772400,99.090080 462.347961,96.648117 461.823303,92.311775 
	C460.696655,82.999657 464.238586,75.153847 468.370514,67.296501 
	C471.693878,60.976742 474.705627,54.492355 477.810211,48.059105 
	C478.328003,46.986259 478.613953,45.801548 479.104462,44.387566 
	C475.331482,44.387566 472.171753,44.387566 468.149658,44.388191 
M414.486023,83.020538 
	C418.443085,83.020538 422.400146,83.020538 426.440430,83.020538 
	C426.440430,79.201225 426.440430,75.838219 426.440430,72.015030 
	C422.653687,72.015030 419.244629,72.015030 416.023651,72.015030 
	C416.023651,66.143616 416.023651,60.746490 416.023651,54.886200 
	C419.779572,54.886200 423.191986,54.886200 426.475525,54.886200 
	C426.475525,51.171722 426.475525,47.941467 426.475525,44.242973 
	C422.722595,44.242973 419.307465,44.242973 415.671173,44.242973 
	C415.987335,33.660645 424.812195,39.799442 428.583740,37.030251 
	C428.583740,33.586414 428.583740,30.335901 428.583740,27.118362 
	C410.996338,26.047144 407.568329,28.332279 402.349121,44.676804 
	C400.384277,44.676804 398.295227,44.676804 396.290039,44.676804 
	C396.290039,48.348526 396.290039,51.614784 396.290039,55.226509 
	C398.669220,55.226509 400.765381,55.226509 403.051392,55.226509 
	C403.051392,60.993771 403.051392,66.404251 403.051392,72.383263 
	C400.615906,72.383263 398.403046,72.383263 396.292358,72.383263 
	C396.292358,76.217804 396.292358,79.479935 396.292358,83.020538 
	C402.213135,83.020538 407.851807,83.020538 414.486023,83.020538 
M253.872833,69.345673 
	C252.178528,70.043503 250.240768,70.423653 248.836487,71.499908 
	C244.937180,74.488426 240.660492,74.546280 236.573425,72.806381 
	C234.419647,71.889511 232.922424,69.430367 231.128769,67.667587 
	C231.478241,67.140289 231.827713,66.612984 232.177200,66.085678 
	C241.705658,66.085678 251.234100,66.085678 260.710785,66.085678 
	C261.366028,52.498100 254.922470,44.680248 242.869263,43.828571 
	C229.866531,42.909805 221.118958,49.713619 220.183182,61.473660 
	C219.211609,73.683617 226.788635,82.463989 239.295425,83.731689 
	C250.991013,84.917183 261.936798,77.304054 261.626404,69.345917 
	C259.341949,69.345917 257.037445,69.345917 253.872833,69.345673 
M313.155579,78.402512 
	C313.096100,71.751297 313.346008,65.079147 312.897644,58.454250 
	C312.354980,50.435936 307.601440,45.119549 300.788147,43.994972 
	C292.655518,42.652641 287.255981,45.653812 283.580872,53.383083 
	C283.054291,54.490566 281.925781,55.311855 281.075806,56.265591 
	C280.836182,56.046360 280.596558,55.827129 280.356934,55.607895 
	C281.016937,52.032894 281.676910,48.457893 282.373932,44.682320 
	C277.677246,44.682320 273.922394,44.682320 270.113892,44.682320 
	C270.113892,57.529812 270.113892,70.094681 270.113892,82.803253 
	C274.110413,82.803253 277.853424,82.803253 282.037262,82.803253 
	C282.037262,80.333427 281.945496,78.042107 282.056519,75.760651 
	C282.281952,71.128754 282.147186,66.410545 283.027496,61.896931 
	C284.094635,56.425316 288.601318,53.807281 294.268677,54.443539 
	C299.048828,54.980198 300.849548,57.382610 300.943848,63.750969 
	C301.036835,70.027641 300.964172,76.306763 300.964172,83.007210 
	C304.331421,83.007210 307.300354,82.798935 310.226562,83.063599 
	C313.389465,83.349663 313.303619,81.492249 313.155579,78.402512 
M342.712036,55.106335 
	C345.655334,55.106335 348.598663,55.106335 351.595123,55.106335 
	C351.595123,51.296497 351.595123,48.061672 351.595123,44.389389 
	C347.405548,44.389389 343.479401,44.389389 338.980316,44.389389 
	C338.980316,40.608578 338.980316,37.253170 338.980316,33.434978 
	C334.558594,34.831917 330.812408,36.015434 326.867310,37.261799 
	C326.867310,39.671570 326.867310,41.790154 326.867310,44.191326 
	C323.820953,44.330738 321.066864,44.456779 318.141174,44.590672 
	C318.141174,48.201820 318.141174,51.566189 318.141174,55.351372 
	C321.215088,55.351372 323.964355,55.351372 326.948364,55.351372 
	C326.948364,62.920578 326.935272,70.066414 326.953522,77.212173 
	C326.963623,81.152901 328.814117,83.661964 332.880829,83.753098 
	C339.640869,83.904579 346.406769,83.794365 352.970276,83.794365 
	C352.970276,79.134880 352.970276,75.874527 352.970276,72.675529 
	C348.261475,72.675529 343.863983,72.675529 339.116119,72.675529 
	C339.116119,67.527687 338.989166,62.552353 339.235718,57.595612 
	C339.278961,56.726173 340.889221,55.934685 342.712036,55.106335 
M175.595566,56.982525 
	C178.404114,65.644127 181.212662,74.305725 183.980240,82.840988 
	C190.849060,82.840988 197.299316,82.840988 203.947220,82.840988 
	C208.038696,70.158859 212.097443,57.578175 216.276886,44.623417 
	C211.975494,44.623417 208.226181,44.623417 204.199493,44.623417 
	C201.712509,52.547306 199.312927,60.483723 196.673996,68.339737 
	C196.183716,69.799271 194.730148,70.935226 193.721161,72.220520 
	C192.870255,70.949104 191.689346,69.787651 191.222977,68.388100 
	C188.567093,60.418098 186.081680,52.391296 183.615784,44.627655 
	C179.362823,44.627655 175.770172,44.627655 171.666336,44.627655 
	C172.942291,48.736149 174.108719,52.492039 175.595566,56.982525 
M361.797516,55.044559 
	C364.361206,55.044559 366.924896,55.044559 369.349945,55.044559 
	C369.349945,61.014084 369.349945,66.429199 369.349945,72.410927 
	C365.714264,72.410927 362.338715,72.410927 359.009552,72.410927 
	C359.009552,76.234650 359.009552,79.477005 359.009552,82.749649 
	C370.174133,82.749649 381.060730,82.749649 391.990356,82.749649 
	C391.990356,79.231560 391.990356,75.976959 391.990356,72.153488 
	C388.394836,72.153488 385.010925,72.153488 381.283051,72.153488 
	C381.283051,64.466469 381.302277,57.347828 381.274933,50.229359 
	C381.261108,46.635715 379.909851,43.943092 375.904938,43.822174 
	C370.805878,43.668217 365.698669,43.784874 359.824280,43.784874 
	C360.238586,48.214176 360.551880,51.563770 361.797516,55.044559 
M84.952782,71.401802 
	C89.897095,64.490067 90.074600,57.946156 85.472488,52.242695 
	C81.238190,46.995068 74.001015,45.172237 67.959091,47.966747 
	C62.346256,50.562801 59.194489,54.998737 59.082859,61.221680 
	C58.971470,67.431267 61.823299,72.168167 67.455109,74.763191 
	C73.613045,77.600662 79.400246,76.634689 84.952782,71.401802 
M367.246246,34.513508 
	C368.684937,39.811348 372.656891,42.208130 377.545074,39.996311 
	C379.400269,39.156857 381.645477,36.430962 381.533478,34.706436 
	C381.401398,32.672577 379.307831,29.918121 377.355225,29.022076 
	C372.908356,26.981415 369.204712,29.076511 367.246246,34.513508 
z"/>
<path fill="#634EF5" opacity="1.000000" stroke="none" 
	d="
M22.468658,121.000000 
	C17.336788,115.071754 17.824352,112.415565 24.388386,108.463676 
	C32.074070,103.836510 39.614201,98.922302 47.560795,94.793381 
	C51.387897,92.804871 55.950935,91.654427 60.272232,91.325043 
	C67.544220,90.770752 74.889198,91.173981 82.203468,91.174278 
	C88.499161,91.174530 93.887627,93.322250 98.267517,97.908783 
	C102.055672,101.875671 105.918259,105.772491 109.661453,109.781036 
	C113.415131,113.800819 113.273247,116.236748 109.127823,120.660797 
	C80.312439,121.000000 51.624878,121.000000 22.468658,121.000000 
z"/>
<path fill="#F5F4FE" opacity="1.000000" stroke="none" 
	d="
M23.991934,1.885849 
	C23.991934,1.885849 23.996948,1.442933 23.998474,1.221467 
	C51.354229,1.000000 78.708458,1.000000 106.531342,1.000000 
	C107.000000,1.000000 107.004585,1.430687 106.541771,1.713499 
	C78.716614,1.959491 51.354275,1.922670 23.991934,1.885849 
z"/>
<path fill="#FA786D" opacity="1.000000" stroke="none" 
	d="
M52.950378,51.474136 
	C52.987717,57.753658 53.014202,63.581745 53.011032,69.409813 
	C53.006790,77.200386 49.737717,83.226112 43.078136,87.288048 
	C35.122147,92.140717 27.160574,96.988945 19.099043,101.662514 
	C11.556329,106.035301 3.857140,101.995262 3.348791,93.296593 
	C2.999622,87.321754 3.253666,81.311157 3.253427,75.316544 
	C3.252849,60.829159 3.125234,46.339977 3.316338,31.855047 
	C3.433645,22.963549 8.002090,18.649607 15.346042,19.885752 
	C16.157440,20.022327 17.041624,20.150568 17.724754,20.561077 
	C26.994904,26.131714 36.369896,31.545181 45.427811,37.444542 
	C50.104107,40.490185 52.255314,45.482254 52.950378,51.474136 
z"/>
<path fill="#644EF5" opacity="1.000000" stroke="none" 
	d="
M23.659027,2.015604 
	C51.354275,1.922670 78.716614,1.959491 106.544106,1.928842 
	C113.257942,4.716774 114.125740,8.399518 109.557388,13.313874 
	C105.589966,17.581797 101.507912,21.744820 97.420341,25.898926 
	C93.482704,29.900654 88.605255,31.777876 83.040359,31.816547 
	C75.379898,31.869780 67.693321,32.201073 60.068050,31.679930 
	C55.890678,31.394432 51.449837,30.294174 47.769745,28.347649 
	C39.395267,23.918108 31.382586,18.795746 23.289318,13.846291 
	C17.325596,10.199164 17.389702,5.928360 23.659027,2.015604 
z"/>
<path fill="#0B0B0B" opacity="1.000000" stroke="none" 
	d="
M146.919891,50.734898 
	C152.748016,50.735184 158.063995,50.735184 163.670090,50.735184 
	C163.670090,54.248798 163.670090,57.493526 163.670090,61.134682 
	C156.661194,61.134682 149.567749,61.134682 142.044952,61.134682 
	C142.044952,64.878845 142.044952,68.245934 142.044952,72.068893 
	C150.266861,72.068893 158.682907,72.068893 167.455933,72.068893 
	C167.455933,75.737625 167.455933,78.978874 167.455933,82.629181 
	C155.108444,82.629181 142.551163,82.629181 129.614594,82.629181 
	C129.614594,65.142227 129.614594,47.440712 129.614594,29.425829 
	C142.165161,29.425829 154.709595,29.425829 167.538971,29.425829 
	C167.538971,32.767738 167.538971,36.015659 167.538971,39.715813 
	C159.105133,39.715813 150.696274,39.715813 141.953400,39.715813 
	C141.953400,43.518246 141.953400,46.885727 141.953400,50.734612 
	C143.524048,50.734612 144.965881,50.734612 146.919891,50.734898 
z"/>
<path fill="#0A0A0A" opacity="1.000000" stroke="none" 
	d="
M468.580872,44.387878 
	C472.171753,44.387566 475.331482,44.387566 479.104462,44.387566 
	C478.613953,45.801548 478.328003,46.986259 477.810211,48.059105 
	C474.705627,54.492355 471.693878,60.976742 468.370514,67.296501 
	C464.238586,75.153847 460.696655,82.999657 461.823303,92.311775 
	C462.347961,96.648117 459.772400,99.090080 455.158875,99.039757 
	C449.182861,98.974564 443.205536,99.023849 436.826782,99.023849 
	C436.826782,94.999680 436.826782,91.633919 436.826782,87.971680 
	C441.013733,87.971680 445.122803,87.971680 450.510132,87.971680 
	C449.423767,83.707024 449.001617,79.771477 447.442719,76.354546 
	C442.643097,65.834122 437.408844,55.511986 431.993256,44.393806 
	C436.520691,44.393806 440.303558,44.191711 444.038757,44.524334 
	C445.078339,44.616905 446.470825,46.124187 446.860321,47.268681 
	C449.457245,54.899841 451.830048,62.607349 454.264038,70.293747 
	C454.554047,71.209625 454.773499,72.147881 455.083191,73.287621 
	C458.573578,63.661140 461.300415,55.773453 464.362335,48.018044 
	C464.945862,46.540058 466.853149,45.584694 468.580872,44.387878 
z"/>
<path fill="#0B0B0B" opacity="1.000000" stroke="none" 
	d="
M413.988220,83.020538 
	C407.851807,83.020538 402.213135,83.020538 396.292358,83.020538 
	C396.292358,79.479935 396.292358,76.217804 396.292358,72.383263 
	C398.403046,72.383263 400.615906,72.383263 403.051392,72.383263 
	C403.051392,66.404251 403.051392,60.993771 403.051392,55.226509 
	C400.765381,55.226509 398.669220,55.226509 396.290039,55.226509 
	C396.290039,51.614784 396.290039,48.348526 396.290039,44.676804 
	C398.295227,44.676804 400.384277,44.676804 402.349121,44.676804 
	C407.568329,28.332279 410.996338,26.047144 428.583740,27.118362 
	C428.583740,30.335901 428.583740,33.586414 428.583740,37.030251 
	C424.812195,39.799442 415.987335,33.660645 415.671173,44.242973 
	C419.307465,44.242973 422.722595,44.242973 426.475525,44.242973 
	C426.475525,47.941467 426.475525,51.171722 426.475525,54.886200 
	C423.191986,54.886200 419.779572,54.886200 416.023651,54.886200 
	C416.023651,60.746490 416.023651,66.143616 416.023651,72.015030 
	C419.244629,72.015030 422.653687,72.015030 426.440430,72.015030 
	C426.440430,75.838219 426.440430,79.201225 426.440430,83.020538 
	C422.400146,83.020538 418.443085,83.020538 413.988220,83.020538 
z"/>
<path fill="#090909" opacity="1.000000" stroke="none" 
	d="
M254.302887,69.345795 
	C257.037445,69.345917 259.341949,69.345917 261.626404,69.345917 
	C261.936798,77.304054 250.991013,84.917183 239.295425,83.731689 
	C226.788635,82.463989 219.211609,73.683617 220.183182,61.473660 
	C221.118958,49.713619 229.866531,42.909805 242.869263,43.828571 
	C254.922470,44.680248 261.366028,52.498100 260.710785,66.085678 
	C251.234100,66.085678 241.705658,66.085678 232.177200,66.085678 
	C231.827713,66.612984 231.478241,67.140289 231.128769,67.667587 
	C232.922424,69.430367 234.419647,71.889511 236.573425,72.806381 
	C240.660492,74.546280 244.937180,74.488426 248.836487,71.499908 
	C250.240768,70.423653 252.178528,70.043503 254.302887,69.345795 
M248.428604,56.495125 
	C242.237701,51.699886 234.172455,52.806934 231.901901,59.335411 
	C237.311676,59.335411 242.528290,59.381294 247.740128,59.244957 
	C248.140472,59.234482 248.507202,57.938938 248.428604,56.495125 
z"/>
<path fill="#050505" opacity="1.000000" stroke="none" 
	d="
M313.155579,78.890259 
	C313.303619,81.492249 313.389465,83.349663 310.226562,83.063599 
	C307.300354,82.798935 304.331421,83.007210 300.964172,83.007210 
	C300.964172,76.306763 301.036835,70.027641 300.943848,63.750969 
	C300.849548,57.382610 299.048828,54.980198 294.268677,54.443539 
	C288.601318,53.807281 284.094635,56.425316 283.027496,61.896931 
	C282.147186,66.410545 282.281952,71.128754 282.056519,75.760651 
	C281.945496,78.042107 282.037262,80.333427 282.037262,82.803253 
	C277.853424,82.803253 274.110413,82.803253 270.113892,82.803253 
	C270.113892,70.094681 270.113892,57.529812 270.113892,44.682320 
	C273.922394,44.682320 277.677246,44.682320 282.373932,44.682320 
	C281.676910,48.457893 281.016937,52.032894 280.356934,55.607895 
	C280.596558,55.827129 280.836182,56.046360 281.075806,56.265591 
	C281.925781,55.311855 283.054291,54.490566 283.580872,53.383083 
	C287.255981,45.653812 292.655518,42.652641 300.788147,43.994972 
	C307.601440,45.119549 312.354980,50.435936 312.897644,58.454250 
	C313.346008,65.079147 313.096100,71.751297 313.155579,78.890259 
z"/>
<path fill="#060606" opacity="1.000000" stroke="none" 
	d="
M342.243896,55.106766 
	C340.889221,55.934685 339.278961,56.726173 339.235718,57.595612 
	C338.989166,62.552353 339.116119,67.527687 339.116119,72.675529 
	C343.863983,72.675529 348.261475,72.675529 352.970276,72.675529 
	C352.970276,75.874527 352.970276,79.134880 352.970276,83.794365 
	C346.406769,83.794365 339.640869,83.904579 332.880829,83.753098 
	C328.814117,83.661964 326.963623,81.152901 326.953522,77.212173 
	C326.935272,70.066414 326.948364,62.920578 326.948364,55.351372 
	C323.964355,55.351372 321.215088,55.351372 318.141174,55.351372 
	C318.141174,51.566189 318.141174,48.201820 318.141174,44.590672 
	C321.066864,44.456779 323.820953,44.330738 326.867310,44.191326 
	C326.867310,41.790154 326.867310,39.671570 326.867310,37.261799 
	C330.812408,36.015434 334.558594,34.831917 338.980316,33.434978 
	C338.980316,37.253170 338.980316,40.608578 338.980316,44.389389 
	C343.479401,44.389389 347.405548,44.389389 351.595123,44.389389 
	C351.595123,48.061672 351.595123,51.296497 351.595123,55.106335 
	C348.598663,55.106335 345.655334,55.106335 342.243896,55.106766 
z"/>
<path fill="#090909" opacity="1.000000" stroke="none" 
	d="
M175.435364,56.615227 
	C174.108719,52.492039 172.942291,48.736149 171.666336,44.627655 
	C175.770172,44.627655 179.362823,44.627655 183.615784,44.627655 
	C186.081680,52.391296 188.567093,60.418098 191.222977,68.388100 
	C191.689346,69.787651 192.870255,70.949104 193.721161,72.220520 
	C194.730148,70.935226 196.183716,69.799271 196.673996,68.339737 
	C199.312927,60.483723 201.712509,52.547306 204.199493,44.623417 
	C208.226181,44.623417 211.975494,44.623417 216.276886,44.623417 
	C212.097443,57.578175 208.038696,70.158859 203.947220,82.840988 
	C197.299316,82.840988 190.849060,82.840988 183.980240,82.840988 
	C181.212662,74.305725 178.404114,65.644127 175.435364,56.615227 
z"/>
<path fill="#060606" opacity="1.000000" stroke="none" 
	d="
M361.331360,54.978962 
	C360.551880,51.563770 360.238586,48.214176 359.824280,43.784874 
	C365.698669,43.784874 370.805878,43.668217 375.904938,43.822174 
	C379.909851,43.943092 381.261108,46.635715 381.274933,50.229359 
	C381.302277,57.347828 381.283051,64.466469 381.283051,72.153488 
	C385.010925,72.153488 388.394836,72.153488 391.990356,72.153488 
	C391.990356,75.976959 391.990356,79.231560 391.990356,82.749649 
	C381.060730,82.749649 370.174133,82.749649 359.009552,82.749649 
	C359.009552,79.477005 359.009552,76.234650 359.009552,72.410927 
	C362.338715,72.410927 365.714264,72.410927 369.349945,72.410927 
	C369.349945,66.429199 369.349945,61.014084 369.349945,55.044559 
	C366.924896,55.044559 364.361206,55.044559 361.331360,54.978962 
z"/>
<path fill="#FA796E" opacity="1.000000" stroke="none" 
	d="
M84.693764,71.668472 
	C79.400246,76.634689 73.613045,77.600662 67.455109,74.763191 
	C61.823299,72.168167 58.971470,67.431267 59.082859,61.221680 
	C59.194489,54.998737 62.346256,50.562801 67.959091,47.966747 
	C74.001015,45.172237 81.238190,46.995068 85.472488,52.242695 
	C90.074600,57.946156 89.897095,64.490067 84.693764,71.668472 
z"/>
<path fill="#0C0C0C" opacity="1.000000" stroke="none" 
	d="
M367.276306,34.136543 
	C369.204712,29.076511 372.908356,26.981415 377.355225,29.022076 
	C379.307831,29.918121 381.401398,32.672577 381.533478,34.706436 
	C381.645477,36.430962 379.400269,39.156857 377.545074,39.996311 
	C372.656891,42.208130 368.684937,39.811348 367.276306,34.136543 
z"/>
<path fill="#F7F7F7" opacity="1.000000" stroke="none" 
	d="
M248.659088,56.867912 
	C248.507202,57.938938 248.140472,59.234482 247.740128,59.244957 
	C242.528290,59.381294 237.311676,59.335411 231.901901,59.335411 
	C234.172455,52.806934 242.237701,51.699886 248.659088,56.867912 
z"/>
</svg>